<svg xmlns="http://www.w3.org/2000/svg" width="48" height="18" viewBox="0 0 48 18">
    <g fill="none" fill-rule="evenodd" stroke="#857D76" stroke-width="2">
        <path d="M15.545 14.09h18.182M6.09 14.09H1.728A.728.728 0 0 1 1 13.365v-1.455l.727-.727v-2.91c0-1.204.728-1.454.728-1.454l7.272-2.181L13.364 1h13.09l4.364 4.364h13.818c.402 0 .728.325.728.727v5.09l.727.728v1.455a.728.728 0 0 1-.727.727H41"/>
        <path d="M33.727 13.364a3.636 3.636 0 1 0 7.273 0 3.636 3.636 0 0 0-7.273 0zM6.09 13.364a3.636 3.636 0 1 0 7.273 0 3.636 3.636 0 0 0-7.272 0z"/>
        <path stroke-linejoin="round" d="M17 1l-2.182 4.364h16"/>
        <path d="M20.636 1v4.364"/>
    </g>
</svg>
