<svg xmlns="http://www.w3.org/2000/svg" width="64" height="64" viewBox="0 0 64 64">
    <g fill="none" fill-rule="evenodd">
        <path fill="#FFD480" d="M47 33c0 8.284-6.716 15-15 15-8.284 0-15-6.716-15-15 0-8.284 6.716-15 15-15 8.284 0 15 6.716 15 15"/>
        <path stroke="#857D76" stroke-width="2" d="M27 6l5-5C18.753 1 7.446 9.309 3.008 21M58 27l5 5c0-13.247-8.31-24.555-20.003-28.992M37 58l-5 5c13.247 0 24.554-8.309 28.992-20M6 37l-5-5c0 13.246 8.308 24.552 19.997 28.99M43 32c0 12.703-11 23-11 23S21 44.703 21 32 32 9 32 9s11 10.297 11 23zM32 9v46"/>
        <path stroke="#857D76" stroke-width="2" d="M38 17l-6 6-6-6M41 24l-9 9-9-9"/>
        <path stroke="#857D76" stroke-width="2" d="M43 32L32 43 21 32"/>
    </g>
</svg>
