<svg xmlns="http://www.w3.org/2000/svg" width="68" height="50" viewBox="0 0 68 50">
    <g fill="none" fill-rule="evenodd">
        <path fill="#E3A5EA" d="M68 18c0 8.284-6.716 15-15 15-8.284 0-15-6.716-15-15 0-8.284 6.716-15 15-15 8.284 0 15 6.716 15 15"/>
        <path stroke="#857D76" stroke-width="2" d="M47 41h4c6.627 0 12-5.372 12-12 0-5.947-4-11-10-11 0-5-3-9-9-9h-1c-2.728-4.924-7.972-8-14-8-8.836 0-16 7.164-16 16-6.627 0-12 5.373-12 12 0 6.628 5.373 12 12 12h3M19 18c0-6.075 5-11 10-11"/>
        <path stroke="#857D76" stroke-width="2" d="M36 46c0 1.656-1.344 3-3 3h-1c-1.656 0-3-1.344-3-3v-8c0-1.656 1.344-3 3-3h1c1.656 0 3 1.344 3 3v8zM26 49h-5a2 2 0 0 1-2-2V37a2 2 0 0 1 2-2h5"/>
        <path stroke="#857D76" stroke-linejoin="round" stroke-width="2" d="M45 49h-5v-1a3 3 0 0 1 3-3h1v-3a1 1 0 0 0-1-1h-4M18 31h2M22 27h2M28 29h2M32 25h2M26 23h2M35 31h2M39 35h2M45 37h2M43 31h2M39 27h2M43 23h2M14 27h2M18 23h2M12 33h2M53 29h2M8 29h2M49 33h2M47 27h2M51 23h2"/>
    </g>
</svg>
