<svg xmlns="http://www.w3.org/2000/svg" xmlns:xlink="http://www.w3.org/1999/xlink" width="76" height="63" viewBox="0 0 76 63">
    <defs>
        <path id="av" d="M0 63h76V0H0z"/>
    </defs>
    <g fill="none" fill-rule="evenodd">
        <path fill="#FFD480" d="M48 62c-8.284 0-15-6.716-15-15 0-8.284 6.716-15 15-15 8.284 0 15 6.716 15 15 0 8.284-6.716 15-15 15z"/>
        <path stroke="#857D76" stroke-width="2" d="M47 41h4c6.627 0 12-5.372 12-12 0-5.947-4-11-10-11 0-5-3-9-9-9h-1c-2.728-4.924-7.972-8-14-8-8.836 0-16 7.164-16 16-6.627 0-12 5.373-12 12 0 6.628 5.373 12 12 12h3M19 18c0-6.075 5-11 10-11"/>
        <path stroke="#857D76" stroke-width="2" d="M36 46c0 1.656-1.344 3-3 3h-1c-1.656 0-3-1.344-3-3v-8a3.001 3.001 0 0 1 3-3h1c1.656 0 3 1.344 3 3v8zM26 49h-5a2 2 0 0 1-2-2V37a2 2 0 0 1 2-2h5"/>
        <path stroke="#857D76" stroke-linejoin="round" stroke-width="2" d="M45 49h-5v-1a3 3 0 0 1 3-3h1v-3a1 1 0 0 0-1-1h-4M18 31h2M22 27h2M28 29h2M32 25h2M26 23h2M35 31h2M39 35h2M45 37h2M43 31h2M39 27h2M43 23h2M14 27h2M18 23h2M12 33h2M53 29h2M8 29h2M49 33h2M47 27h2M51 23h2"/>
        <path stroke="#857D76" stroke-width="2" d="M9.75 53.25l50-50M62.75 55.5a1.5 1.5 0 0 1-1.5 1.5h-.5a1.5 1.5 0 0 1-1.5-1.5v-4a1.501 1.501 0 0 1 1.5-1.5h.5a1.5 1.5 0 0 1 1.5 1.5v4zM51.5 50h6M54.5 50v8"/>
        <path stroke="#857D76" stroke-linejoin="round" stroke-width="2" d="M66 58v-8l4 7v-8"/>
        <mask id="bv" fill="#fff">
            <use xlink:href="#av"/>
        </mask>
        <path stroke="#857D76" stroke-width="2" d="M48 62h27V45H48z" mask="url(#bv)"/>
    </g>
</svg>
