<svg xmlns="http://www.w3.org/2000/svg" width="197" height="53" class=""><g
    fill="none"
    fill-rule="evenodd"
  ><path
      fill="#E5243B"
      d="M26.981 11.583c1.257.105 2.463.35 3.616.737l4.081-10.776A24.806 24.806 0 0 0 26.981.053v11.53"
    /><path
      fill="#DDA63A"
      d="M32.13 12.917a13.718 13.718 0 0 1 3.202 2.053l7.645-8.512a26.69 26.69 0 0 0-6.784-4.317L32.13 12.917"
    /><path
      fill="#4C9F38"
      d="M38.776 19.13l10.16-5.143a27.445 27.445 0 0 0-4.753-6.406l-7.68 8.512c.896.913 1.653 1.93 2.273 3.054"
    /><path
      fill="#C5192D"
      d="M49.641 15.479l-10.159 5.16a13.193 13.193 0 0 1 1.033 3.65L51.793 23.2a26.988 26.988 0 0 0-2.152-7.722"
    /><path
      fill="#FF3A21"
      d="M40.687 26.5c0 1.053-.12 2.141-.344 3.159l10.9 3.194c.516-2.036.757-4.177.757-6.37 0-.562 0-1.106-.052-1.633L40.67 25.938v.527"
    /><path
      fill="#26BDE2"
      d="M39.913 31.274a15.937 15.937 0 0 1-1.585 3.334l9.04 6.932a25.437 25.437 0 0 0 3.444-7.09L39.93 31.291"
    /><path
      fill="#FCC30B"
      d="M37.364 35.942c-.809 1-1.722 1.878-2.755 2.632l5.958 9.828a27.072 27.072 0 0 0 5.854-5.51l-9.057-6.95"
    /><path
      fill="#A21942"
      d="M39.172 49.315l-5.94-9.828c-1.085.614-2.239 1.105-3.478 1.404l2.1 11.407a26.397 26.397 0 0 0 7.318-2.983"
    /><path
      fill="#FD6925"
      d="M28.152 41.242a13.76 13.76 0 0 1-2.1.175c-.586 0-1.154-.052-1.722-.123L22.264 52.65a26.43 26.43 0 0 0 3.788.298c1.429 0 2.823-.122 4.201-.35l-2.1-11.355"
    /><path
      fill="#DD1367"
      d="M22.728 41.014a13.972 13.972 0 0 1-3.615-1.404l-5.94 9.827a25.485 25.485 0 0 0 7.455 2.931l2.1-11.354"
    /><path
      fill="#FD9D24"
      d="M14.911 36.152L5.89 43.137a26.493 26.493 0 0 0 5.888 5.44l5.958-9.827a13.245 13.245 0 0 1-2.824-2.598"
    /><path
      fill="#BF8B2E"
      d="M13.913 34.836a17.401 17.401 0 0 1-1.722-3.51l-10.882 3.16a26.862 26.862 0 0 0 3.616 7.335l8.988-6.985"
    /><path
      fill="#3F7E44"
      d="M11.416 26.5v-.702L.172 24.745c-.034.58-.051 1.158-.051 1.755 0 2.194.275 4.335.774 6.388l10.9-3.194a15.283 15.283 0 0 1-.345-3.212"
    /><path
      fill="#0A97D9"
      d="M11.588 24.13a14.45 14.45 0 0 1 1.085-3.685l-10.16-5.177a27.988 27.988 0 0 0-2.169 7.845l11.279 1.053"
    /><path
      fill="#56C02B"
      d="M13.43 18.954a14.348 14.348 0 0 1 2.325-3.054L8.127 7.37a26.328 26.328 0 0 0-4.855 6.424l10.158 5.16"
    /><path
      fill="#00689D"
      d="M16.977 14.794a15.6 15.6 0 0 1 3.134-1.93L16.013 2.07c-2.41 1.018-4.683 2.457-6.663 4.142l7.627 8.546"
    /><path
      fill="#19486A"
      d="M21.644 12.285c1.17-.404 2.41-.632 3.702-.702V.035a25.63 25.63 0 0 0-7.8 1.457l4.08 10.793"
    /><path
      fill="#101215"
      d="M67.663 37.082h-3.509V41h-.75v-8.196h4.649v.693h-3.899v2.923h3.539v.693l-.03-.03zm3.628-.964c-1.44 0-1.5.904-1.5 2.17 0 1.265.06 2.2 1.5 2.2s1.5-.905 1.5-2.2c0-1.206-.06-2.17-1.5-2.17zm0 5.032c-1.859 0-2.309-1.205-2.309-2.863 0-1.657.48-2.862 2.34-2.862 1.889 0 2.308 1.205 2.308 2.862 0 1.688-.42 2.863-2.309 2.863h-.03zm6.598-4.942c-.15-.06-.36-.09-.6-.09-.78 0-1.2.12-1.62.361v4.58h-.78v-5.574h.45l.15.482c.51-.392 1.2-.602 1.8-.602.21 0 .42 0 .6.09v.753zm3.478-1.265c0 1.205.69 1.295 1.98 1.446 1.589.211 2.608.603 2.608 2.23 0 1.115-.6 2.5-2.998 2.5-.81 0-1.8-.21-2.34-.451v-.723c.48.18 1.14.452 2.28.452 1.709 0 2.219-.814 2.219-1.808 0-1.206-.48-1.416-1.86-1.597-1.919-.241-2.698-.693-2.698-2.11 0-.904.48-2.29 2.788-2.29 1.05 0 1.71.211 2.16.422v.814c-.75-.362-1.32-.482-2.1-.482-1.649 0-2.039.753-2.039 1.627v-.03zm6.598 4.55c0 .753.42.964 1.08.964.719 0 1.079-.12 1.498-.362v-4.52h.75V41h-.45l-.15-.422c-.51.362-1.08.603-1.649.603-1.29 0-1.86-.603-1.86-1.687v-3.978h.78v4.038-.06zm6.597-1.627c1.5.15 1.919.662 1.919 1.566 0 .844-.54 1.718-2.22 1.718-.509 0-1.259-.15-1.618-.301v-.693c.3.15.9.301 1.649.301 1.14 0 1.44-.482 1.44-.994 0-.513-.15-.904-1.2-.965-1.62-.15-1.95-.693-1.95-1.446 0-.783.51-1.627 2.04-1.627.51 0 1.08.06 1.56.301v.603c-.42-.12-.84-.241-1.59-.241-1.08 0-1.29.422-1.29.964 0 .482.18.723 1.2.814h.06zm6.027 3.224c-.12.06-.36.09-.48.09-.96 0-1.799-.422-1.799-1.506v-3.556h-1.08v-.301l1.08-.302V34.01l.78-.241v1.747h1.68v.603h-1.68v3.435c0 .663.36.904 1.05.904h.45v.633zm3-2.863c-.78.09-1.11.482-1.11 1.145 0 .482.12 1.085 1.14 1.085.599 0 .989-.18 1.499-.452v-1.898l-1.5.12h-.03zm.18-2.11c-.69 0-1.2.121-1.59.302v-.693c.48-.21 1.11-.301 1.619-.301 1.68 0 2.1.723 2.1 1.808v3.827h-.42l-.15-.483c-.48.362-1.08.543-1.62.543-1.44 0-1.92-.844-1.92-1.748s.51-1.627 1.95-1.717l1.44-.09v-.302c0-.814-.3-1.205-1.29-1.205l-.12.06zm3.718 3.737v-4.339h.72v4.52c0 .362.12.482.479.482v.603c-.78 0-1.2-.301-1.2-1.205v-.06zm.36-6.629c.3 0 .54.301.54.603 0 .301-.24.542-.54.542-.3 0-.54-.24-.54-.602 0-.302.24-.513.54-.513v-.03zm5.397 3.737c0-.693-.39-.904-1.08-.904-.72 0-1.079.09-1.499.3v4.702h-.75v-5.575h.42l.15.482c.51-.392 1.05-.602 1.65-.602 1.29 0 1.859.602 1.859 1.657v4.038h-.78v-4.068l.03-.03zm3.869 1.235c-.81.09-1.14.482-1.14 1.145 0 .482.12 1.085 1.2 1.085.54 0 .9-.181 1.409-.452v-1.899l-1.5.121h.03zm.18-2.11c-.75 0-1.2.121-1.65.242v-.663c.48-.211 1.11-.301 1.65-.301 1.619 0 2.099.783 2.099 1.868v3.827h-.48l-.15-.483c-.48.362-1.08.603-1.62.603-1.439 0-1.919-.904-1.919-1.808s.51-1.627 1.95-1.717l1.439-.09v-.302c0-.814-.3-1.205-1.32-1.205v.03zm4.258.302v3.767c.42.24.81.361 1.5.361 1.319 0 1.499-1.085 1.499-2.17 0-1.114-.18-2.199-1.5-2.199-.69 0-1.08.12-1.5.362v-.12zm3.778 1.959c0 1.567-.48 2.862-2.249 2.862-.6 0-1.14-.21-1.71-.602l-.18.482h-.419v-8.347h.78v3.104a2.805 2.805 0 0 1 1.5-.452c1.798 0 2.248 1.265 2.248 2.862l.03.09zm1.5 1.627v-7.202h.72v7.232c0 .392.12.512.45.512v.603c-.81 0-1.2-.301-1.2-1.205l.03.06zm3.058-1.959h2.85c0-1.024-.06-1.928-1.32-1.928-1.29 0-1.5.904-1.5 1.898l-.03.03zm1.5-2.621c1.889 0 2.099 1.265 2.099 2.862v.302h-3.599c0 .994.3 1.868 1.5 1.868.81 0 1.29-.09 1.799-.302v.663c-.6.302-1.2.302-1.8.302-1.798 0-2.278-1.266-2.278-2.833 0-1.567.45-2.862 2.309-2.862h-.03zm6.117 4.911h1.5c2.009 0 2.699-1.446 2.699-3.435s-.69-3.435-2.7-3.435h-1.499v6.87zm-.72.693v-8.256h2.22c2.699 0 3.448 1.808 3.448 4.128 0 2.35-.78 4.128-3.448 4.128h-2.25.03zm7.737-2.953h2.85c0-1.024-.06-1.928-1.32-1.928s-1.5.904-1.5 1.898l-.03.03zm1.5-2.621c1.889 0 2.099 1.265 2.099 2.862v.302h-3.599c0 .994.3 1.868 1.5 1.868.81 0 1.29-.09 1.8-.301v.663c-.6.3-1.2.3-1.8.3-1.8 0-2.28-1.265-2.28-2.832 0-1.566.45-2.862 2.31-2.862h-.03zm3.658.09l1.56 4.52 1.559-4.52h.84l-2.1 5.605h-.6l-2.098-5.605h.84zm5.338 2.471h2.849c0-.964-.06-1.898-1.32-1.898-1.259 0-1.499.904-1.499 1.898h-.03zm1.5-2.561c1.889 0 2.099 1.265 2.099 2.862v.302h-3.599c0 .994.3 1.868 1.5 1.868.81 0 1.289-.09 1.799-.301v.663c-.6.3-1.2.3-1.8.3-1.799 0-2.279-1.265-2.279-2.832 0-1.566.45-2.862 2.31-2.862h-.03zm3.598 4.52v-7.202h.75v7.232c0 .392.12.512.45.512v.603c-.78 0-1.2-.302-1.2-1.206v.06zm4.648-3.887c-1.5 0-1.5.904-1.5 2.2 0 1.205 0 2.169 1.5 2.169 1.41 0 1.5-.904 1.5-2.17 0-1.265-.09-2.2-1.5-2.2zm0 5.032c-1.89 0-2.309-1.206-2.309-2.833 0-1.627.42-2.862 2.28-2.862 1.888 0 2.308 1.205 2.308 2.862 0 1.688-.39 2.863-2.279 2.863v-.03zm7.377-2.833c0-1.115-.15-2.2-1.5-2.2-.659 0-1.049.121-1.499.362v3.616c.45.301.84.392 1.5.392 1.35 0 1.5-1.085 1.5-2.17zm-2.999 2.41v3.105h-.75v-8.257h.42l.12.452c.6-.301 1.14-.512 1.71-.512 1.799 0 2.279 1.266 2.279 2.863 0 1.566-.48 2.832-2.25 2.832-.45 0-1.019-.12-1.499-.452l-.03-.03zm11.576-3.675c0-.693-.45-.904-1.05-.904-.66 0-1.02.12-1.5.301.09.211.12.392.12.603v4.068h-.779v-4.068c0-.693-.42-.904-1.05-.904-.6 0-.99.09-1.409.301v4.67h-.84v-5.574h.42l.18.452c.51-.301 1.08-.512 1.59-.512.75 0 1.259.21 1.499.602.6-.391 1.2-.602 1.74-.602 1.199 0 1.798.542 1.798 1.627v4.008h-.72v-4.068zm2.759.964h2.878c0-.964-.06-1.898-1.32-1.898-1.289 0-1.499.904-1.499 1.898h-.06zm1.559-2.561c1.86 0 2.099 1.265 2.099 2.862v.302h-3.658c.06.994.3 1.868 1.499 1.868.84 0 1.32-.09 1.86-.302v.663c-.6.302-1.29.302-1.8.302-1.86 0-2.31-1.266-2.31-2.833 0-1.567.45-2.862 2.31-2.862zm6.717 1.597c0-.693-.42-.904-1.11-.904-.69 0-1.049.09-1.499.301v4.67h-.72v-5.574h.42l.18.482c.51-.392 1.05-.602 1.65-.602 1.29 0 1.859.602 1.859 1.657v4.038h-.78v-4.068zm4.948 4.068c-.12.06-.36.06-.48.06-.9 0-1.799-.422-1.799-1.507v-3.465h-1.02v-.301l1.05-.302V34.04l.78-.241v1.747h1.709v.603h-1.74v3.405c0 .663.39.904 1.08.904h.42v.603zm-8.247-15.97v-2.35h2.76v2.41c0 1.024.45 1.597 1.499 1.597.9 0 1.32-.603 1.32-1.567v-.693c0-.995-.39-1.627-1.29-2.501l-1.74-1.718c-1.739-1.717-2.519-2.712-2.519-4.76v-.603c0-2.2 1.29-3.918 4.199-3.918 2.999 0 4.138 1.507 4.138 4.038v1.447h-2.699v-1.567c0-1.025-.51-1.507-1.44-1.507-.839 0-1.409.452-1.409 1.446v.362c0 1.024.51 1.597 1.38 2.41l1.919 1.899c1.62 1.657 2.399 2.652 2.399 4.61v.904c0 2.41-1.32 4.128-4.348 4.128-2.999 0-4.198-1.687-4.198-4.037l.03-.03zm-7.347-13.862h3v15.308h3.538v2.41h-6.538V11.168v.06zm-7.317 12.084h2.4l-1.2-7.082-1.2 7.112v-.03zm-3.778 5.695l3.359-17.779h3.418l3.359 17.779h-3.059l-.54-3.315H173.4l-.54 3.315h-2.849zm-3.509-4.098v-9.613c0-1.054-.48-1.808-1.559-1.808-1.02 0-1.5.754-1.5 1.808v9.552c0 1.055.48 1.808 1.5 1.808 1.11 0 1.59-.753 1.59-1.808l-.03.06zm-6.087-.543v-8.618c0-2.712 1.41-4.76 4.498-4.76 3.209 0 4.558 2.018 4.558 4.82v8.558c0 2.772-1.35 4.821-4.498 4.821-3.149 0-4.498-2.049-4.498-4.82h-.06zm-5.638-4.881h4.258v9.461h-2.159v-1.928c-.39 1.326-1.2 2.11-2.848 2.11-2.55 0-3.719-1.99-3.719-4.762v-8.618c0-2.712 1.32-4.76 4.498-4.76 3.239 0 4.199 1.807 4.199 4.459v1.567h-2.7v-1.808c0-1.115-.42-1.718-1.499-1.718-1.08 0-1.5.754-1.5 1.808v9.552c0 1.055.42 1.808 1.44 1.808.99 0 1.5-.512 1.5-1.687v-3.134h-1.41v-2.35h-.06zm-14.574-8.257h2.999v15.308h3.539v2.41h-6.538V11.168v.06zm-7.377 12.114h2.4l-1.2-7.081-1.2 7.11v-.03zm-3.658 5.665l3.298-17.779h3.419l3.419 17.779h-3.06l-.599-3.225h-3.119l-.6 3.225h-2.788.03zm-6.388-7.985v5.574h1.32c.99 0 1.5-.512 1.5-1.446v-2.712c0-.904-.48-1.416-1.5-1.416h-1.32zm0-2.26h1.05c.9 0 1.38-.513 1.38-1.447v-2.17c0-.994-.45-1.446-1.44-1.446h-1.02v5.063h.03zm-2.998-7.534h4.348c2.939 0 3.898 1.417 3.898 3.918v1.808c0 1.506-.51 2.41-1.74 2.832 1.5.362 2.22 1.356 2.22 3.013v2.32c0 2.471-1.14 3.857-4.108 3.857h-4.648V11.168l.03.06zm-4.349 13.65v-9.582c0-1.054-.48-1.808-1.56-1.808-1.019 0-1.498.754-1.498 1.808v9.552c0 1.055.48 1.808 1.499 1.808 1.08 0 1.56-.753 1.56-1.808v.03zm-6.057-.512v-8.618c0-2.712 1.38-4.76 4.498-4.76 3.149 0 4.498 2.018 4.498 4.82v8.558c0 2.772-1.32 4.821-4.498 4.821-3.119 0-4.498-2.049-4.498-4.82zm-7.557-13.138h2.999v15.308h3.538v2.41h-6.507V11.168l-.03.06zm-5.668 8.257h4.288v9.461H98.28v-1.928c-.42 1.326-1.2 2.11-2.849 2.11-2.578 0-3.748-1.99-3.748-4.762v-8.618c0-2.712 1.32-4.76 4.498-4.76 3.299 0 4.198 1.807 4.198 4.459v1.567h-2.698v-1.808c0-1.115-.42-1.718-1.5-1.718-1.05 0-1.5.754-1.5 1.808v9.552c0 1.055.42 1.808 1.44 1.808.96 0 1.5-.512 1.5-1.687v-3.134h-1.44v-2.35h-.03zm-15.384-8.257h7.078v2.411h-4.079v5.123h2.999v2.41h-2.999v5.364h4.079v2.41h-7.048V11.228h-.03zm-4.438 9.944H73.45v7.835h-2.998V11.228h2.998v7.534h2.88v-7.594h2.998v17.778h-2.999v-7.834.06zM61.455 11.168h7.917v2.471h-2.459v15.307h-2.999V13.64h-2.459v-2.47z"
    /></g></svg>
