<svg
  xmlns="http://www.w3.org/2000/svg"
  xmlns:xlink="http://www.w3.org/1999/xlink"
  viewBox="0 0 156 47"
  class=""
><defs><path id="a" d="M0 46.731h155.314V0H0z" /></defs><g
    fill="none"
    fill-rule="evenodd"
  ><path fill="#B72F2B" d="M0 47h47V0H0z" /><path
      fill="#FFF"
      d="M33 14.563V10H18.867v9.748H16v3.11h2.867v2.49H16v3.11h2.867V38h5.53v-9.542h4.711l1.436-3.11h-6.146v-2.49h7.168L33 19.748h-8.602v-5.185z"
    /><g transform="translate(0 -1)"><path
        fill="#006193"
        d="M55.544 23.03v2.62h2.26v8.055h4.528v-8.056h4.318l1.235-2.62h-5.553v-1.41h6.172l1.232-2.617h-7.404v-4.431h7.404v-3.827H57.805v8.258h-2.261v2.617h2.26v1.41h-2.26zm82.285 14.907h4.526l7.2-19.138h-4.731l-3.088 9.87-3.291-9.87h-4.524l5.554 14.906-1.646 4.232zm-5.143-7.656c-.205.201-.411.201-.822.201-1.029 0-1.44-.403-1.44-1.005v-7.455h2.262v-3.223h-2.262v-4.631h-4.116v4.631h-2.056v3.223h2.056v7.856c0 3.223 1.645 3.827 4.321 3.827h2.057V30.28zm-14.194 3.424h4.32V18.799h-4.32v14.906zM74.058 10.138c-1.44 0-2.47 1.41-2.47 2.62 0 1.005 1.03 2.415 2.47 2.415 1.44 0 2.467-1.206 2.467-2.616 0-1.21-1.233-2.42-2.467-2.42zm46.491 0c-1.236 0-2.263 1.41-2.263 2.62 0 1.005 1.027 2.415 2.263 2.415 1.44 0 2.467-1.206 2.467-2.616 0-1.21-1.027-2.42-2.467-2.42zm-8.23 1.007v22.56h4.116V10.744h-4.116v.4zm-5.758 13.497c-.206-1.411-1.235-3.023-3.292-3.023-2.057 0-3.291 1.41-3.497 3.023h6.789zm4.112 1.61v1.21h-10.9c.205 1.612 1.233 3.425 3.496 3.425 1.235 0 2.467-.606 3.086-1.813l4.114.403c-1.03 3.021-3.908 4.632-7.405 4.632-4.526 0-7.614-3.222-7.614-7.857 0-4.834 3.088-7.856 7.614-7.856 4.524 0 7.61 3.022 7.61 7.856zm-20.775 0c0-2.214-1.236-4.431-3.909-4.431-2.264 0-3.497 2.217-3.497 4.431 0 2.417 1.233 4.433 3.703 4.433 2.467 0 3.703-2.016 3.703-4.433zm0 7.453v-2.216c-1.236 1.813-2.882 2.62-4.939 2.62-4.113 0-6.993-3.828-6.993-7.857 0-4.23 2.675-7.856 6.993-7.856 1.851 0 3.293.606 4.733 2.42V10.743h4.318v22.96h-4.112zm-18.105 0h4.526V18.799h-4.526v14.906zm78.584-25.581h-.616V7.52h2.056v.603h-.823v2.417h-.617zm4.321-.604l-.823 2.215-1.029-2.214h-.617v3.02h.617V8.529l.821 2.014h.208l.823-2.014v2.014h.615V7.52z"
      /><mask id="b" fill="#fff"><use xlink:href="#a" /></mask><path
        fill="#006193"
        d="M57.804 46.799h1.236V41.56h-1.236zm5.762-.001h-1.234v-5.237h1.234l2.057 3.023v-3.023h1.234v5.237h-1.234l-2.057-3.021zm8.64 0h-1.234v-4.23h-1.235v-1.007h3.703v1.007h-1.234zm5.349-3.021H79.2v1.009h-1.646v1.005H79.2v1.007h-3.086v-5.237H79.2v1.007h-1.646zm6.582.403c.412 0 .821-.403.821-.806 0-.402-.204-.805-.82-.805h-.412v1.611h.411zm-.411 2.619h-1.234v-5.24h1.645c.617 0 1.235.204 1.44.405.412.403.617.806.617 1.41 0 .806-.205 1.209-1.028 1.61L86.4 46.8h-1.646l-1.028-2.015V46.8zm7.2-.001h-1.44v-5.237h1.44l1.851 3.023v-3.023h1.235v5.237h-1.235l-1.851-3.021zm8.434-3.626l-.617 1.813h1.234l-.617-1.813zm-.821 2.822l-.413.804H96.89l1.648-5.237h1.644l1.851 5.237h-1.44l-.205-.804h-1.85zm8.021.804h-1.234v-4.23h-1.234v-1.007h3.703v1.007h-1.235zm4.731.001h1.235V41.56h-1.235zm5.555-2.619c0 1.007.615 1.612 1.44 1.612.823 0 1.44-.605 1.44-1.612 0-.806-.617-1.611-1.44-1.611-.825 0-1.44.805-1.44 1.611m4.113 0c0 1.612-1.233 2.82-2.673 2.82-1.646 0-2.88-1.208-2.88-2.82 0-.806.41-1.41.823-2.014.617-.403 1.232-.606 2.057-.606 1.646 0 2.673 1.009 2.673 2.62m4.115 2.618h-1.234v-5.237h1.234l1.852 3.023v-3.023h1.44v5.237h-1.44l-1.852-3.021zm8.64-3.626l-.617 1.813h1.234l-.617-1.813zm-.823 2.822l-.411.804h-1.234l1.645-5.237h1.646l1.852 5.237h-1.44l-.206-.804h-1.852zm9.258-.202v1.007h-3.086v-5.24h1.44v4.233z"
        mask="url(#b)"
      /></g></g></svg>
