<svg xmlns="http://www.w3.org/2000/svg" width="170" height="32" class=""><g
    fill="none"
    fill-rule="evenodd"
  ><path
      fill="#231F20"
      d="M103.016.137h3.326c1.987 0 2.726 1.189 2.726 2.331 0 .96-.554 2.012-1.848 2.286 0 0-.37.092-.831.092h-2.68v3.2h-.693V.137zm3.326 4.16c1.479 0 2.08-.96 2.08-1.829 0-.914-.555-1.782-2.033-1.782h-2.68v3.611h2.633z"
    /><path fill="#00AEEF" d="M22.636 8.96h9.008V.046h-9.008z" /><path
      fill="#0087CD"
      d="M22.636 20.206h9.008V11.29h-9.008z"
    /><path fill="#0054A6" d="M22.636 31.406h9.008V22.49h-9.008z" /><path
      fill="#00AEEF"
      d="M11.318 20.206h9.008V11.29h-9.008z"
    /><path fill="#0087CD" d="M11.318 31.406h9.008V22.49h-9.008z" /><path
      fill="#00AEEF"
      d="M0 31.406h9.008V22.49H0z"
    /><path
      fill="#231F20"
      d="M161.177 19.566h.646v-8.137h-.646v8.137zm-7.16-8.137h.646v3.017c.508-.503 1.155-.96 1.986-.96 1.479 0 2.449 1.143 2.449 3.017 0 1.966-.924 3.2-2.449 3.2-.785 0-1.478-.412-1.986-1.006l-.092.869h-.555v-8.137zm2.494 7.725c1.247 0 1.894-1.051 1.894-2.651 0-1.509-.74-2.469-1.94-2.469-.74 0-1.34.412-1.848 1.006v3.154c.554.595 1.2.96 1.894.96zm-11.503-.503c.416.275 1.109.503 1.894.503 1.016 0 1.525-.411 1.525-1.097 0-1.737-3.604-.64-3.604-2.926 0-1.005.832-1.645 2.08-1.645.692 0 1.385.183 1.94.457l-.278.503c-.462-.229-1.108-.412-1.663-.412-.878 0-1.432.457-1.432 1.097 0 1.738 3.603.595 3.603 2.926 0 1.006-.785 1.646-2.17 1.646a4.713 4.713 0 0 1-2.172-.549l.277-.503zm-6.837-5.028h.6l.047.868c.554-.548 1.293-1.005 2.171-1.005 1.34 0 1.848.823 1.848 1.965v4.069h-.647v-4.114c0-.869-.323-1.417-1.34-1.417-.831 0-1.524.411-2.078 1.097v4.434h-.647v-5.897h.046zm-4.804-.137c1.617 0 2.818 1.188 2.818 3.017 0 1.966-1.155 3.2-2.818 3.2-1.71 0-2.818-1.234-2.818-3.2 0-1.829 1.201-3.017 2.818-3.017zm0 5.714c1.293 0 2.125-1.051 2.125-2.651 0-1.509-.878-2.515-2.125-2.515-1.247 0-2.171 1.006-2.171 2.515 0 1.6.877 2.651 2.17 2.651zm-15.06-.549c.416.275 1.109.503 1.894.503 1.016 0 1.525-.411 1.525-1.097 0-1.737-3.604-.64-3.604-2.926 0-1.005.832-1.645 2.08-1.645.692 0 1.385.183 1.94.457l-.278.503c-.462-.229-1.109-.412-1.663-.412-.878 0-1.432.457-1.432 1.097 0 1.738 3.603.595 3.603 2.926 0 1.006-.785 1.646-2.17 1.646a4.713 4.713 0 0 1-2.172-.549l.277-.503zm6.098 3.246h-.647V13.67h.555l.092.868c.508-.548 1.155-1.006 1.986-1.006 1.479 0 2.449 1.143 2.449 3.018 0 1.965-.924 3.2-2.449 3.2-.831 0-1.478-.412-1.986-.96v3.108zm1.894-2.743c1.247 0 1.94-1.051 1.94-2.651 0-1.509-.739-2.469-1.94-2.469-.74 0-1.34.412-1.848 1.006v3.154c.462.595 1.109.96 1.848.96zm-12.704-5.668c1.663 0 2.356 1.097 2.356 2.605 0 .138 0 .32-.046.412h-4.481v.046c0 1.645.693 2.605 2.171 2.605.693 0 1.34-.274 1.802-.548l.323.457c-.554.366-1.34.64-2.125.64-1.848 0-2.818-1.189-2.818-3.2.046-1.829 1.201-3.017 2.818-3.017zm-2.125 2.56h3.834c.047-1.097-.462-2.012-1.709-2.012-1.109-.045-1.94.732-2.125 2.012zm-8.407-4.617h3.326c1.986 0 2.725 1.188 2.725 2.331 0 .96-.554 2.011-1.848 2.286l1.848 3.474h-.739l-1.71-3.383h-2.863v3.383h-.647v-8.091h-.093zm3.28 4.205c1.478 0 2.078-.96 2.078-1.828 0-.915-.554-1.783-2.032-1.783h-2.68v3.611h2.633zm59.961-13.348h.555l.046 1.005c.462-.777 1.109-1.142 1.848-1.142.277 0 .508.045.693.091l-.139.594a2.753 2.753 0 0 0-.647-.091c-.693 0-1.293.411-1.755 1.234v4.114h-.6V2.286zm-4.342-.137c1.57 0 2.726 1.188 2.726 2.971 0 1.92-1.11 3.109-2.726 3.109-1.663 0-2.772-1.189-2.772-3.109 0-1.829 1.201-2.971 2.772-2.971zm0 5.531c1.247 0 2.079-1.006 2.079-2.606 0-1.463-.878-2.423-2.079-2.423-1.247 0-2.125.96-2.125 2.423 0 1.6.831 2.606 2.125 2.606zm-5.774-4.891h-1.11v-.503h1.11V2.24c0-1.691.877-2.24 2.17-2.24.232 0 .601.046.74.091l-.139.503a2.363 2.363 0 0 0-.6-.091c-.97 0-1.571.457-1.571 1.691v.092h1.663v.503h-1.663v5.257h-.647V2.789h.047zm-8.316 4.388c.416.274 1.109.503 1.848.503.97 0 1.478-.411 1.478-1.051 0-1.692-3.51-.64-3.51-2.88 0-.96.831-1.6 2.032-1.6.693 0 1.386.182 1.894.411l-.23.503a3.672 3.672 0 0 0-1.618-.412c-.831 0-1.386.458-1.386 1.052 0 1.691 3.511.594 3.511 2.88 0 1.006-.739 1.6-2.125 1.6-.877 0-1.617-.229-2.125-.549l.231-.457zm-3.788-5.028c1.617 0 2.31 1.097 2.31 2.514v.411h-4.389c0 1.6.693 2.56 2.125 2.56.647 0 1.34-.228 1.756-.548l.323.457c-.554.366-1.34.64-2.079.64-1.801 0-2.725-1.189-2.725-3.109-.046-1.783 1.109-2.925 2.68-2.925zm-2.079 2.468h3.742c0-1.097-.462-1.966-1.663-1.966-1.062 0-1.894.732-2.079 1.966zm-2.956 3.429h.647v-8h-.647v8zm-6.006 2.285h-.646V2.286h.554l.046.823c.508-.549 1.109-.96 1.94-.96 1.479 0 2.403 1.097 2.403 2.971 0 1.92-.878 3.109-2.403 3.109-.785 0-1.432-.366-1.94-.96v3.062h.046zm1.848-2.651c1.201 0 1.894-1.006 1.894-2.606 0-1.508-.739-2.423-1.894-2.423-.739 0-1.34.412-1.801.96v3.063c.462.64 1.062 1.006 1.801 1.006zM129.764.823h.646V.137h-.646v.686zm0 7.223h.646v-5.76h-.646v5.76zm-3.465-5.897c.785 0 1.386.274 1.802.548l-.324.457a2.454 2.454 0 0 0-1.478-.457c-1.201 0-2.079.914-2.079 2.423 0 1.6.832 2.56 2.079 2.56.693 0 1.155-.229 1.57-.594l.37.411c-.508.457-1.109.686-1.94.686-1.617 0-2.68-1.189-2.68-3.109-.046-1.783 1.11-2.925 2.68-2.925zm-8.87.137h.555l.046.868c.508-.548 1.247-1.005 2.125-1.005 1.34 0 1.802.777 1.802 1.92v3.977h-.647V4.069c0-.823-.324-1.418-1.294-1.418-.831 0-1.478.412-2.032 1.052v4.343h-.647v-5.76h.092zM114.796.823h.647V.137h-.647v.686zm0 7.223h.647v-5.76h-.647v5.76zm-4.435-5.76h.555l.046 1.005c.462-.777 1.109-1.142 1.848-1.142.277 0 .508.045.693.091l-.139.594a2.753 2.753 0 0 0-.647-.091c-.693 0-1.293.411-1.755 1.234v4.114h-.647V2.286h.046zM97.196 31.36h.646V.046h-.646V31.36zm-9.193.046h3.973V.09h-3.973v31.315zm-8.5 0L72.758 17.6h-7.16v13.806h-3.973V.09h12.288c2.726 0 4.712.64 6.329 2.012 1.94 1.646 3.095 4.023 3.095 6.537 0 4.023-2.217 7.177-6.005 8.457l-.555.183 7.207 14.126h-4.481zM65.644 14.263h7.992c4.157 0 6.052-2.834 6.052-5.623 0-1.783-.647-3.2-1.848-4.069-1.063-.777-2.172-1.097-3.927-1.097H65.69v10.789h-.046zM36.91 31.406V.09h11.318c2.633 0 4.712.366 7.022 2.149 2.079 1.6 3.326 4.343 3.326 7.314 0 4.48-3.418 9.235-9.701 9.235h-8.038v12.617H36.91zm3.927-16.275h7.853c3.927 0 5.96-2.88 5.96-5.714 0-2.103-.786-3.703-2.31-4.708-1.248-.823-2.403-1.006-3.788-1.006h-7.715V15.13zm125.837-1.645c1.663 0 2.356 1.097 2.356 2.605 0 .138 0 .32-.046.412h-4.481v.046c0 1.645.693 2.605 2.17 2.605.694 0 1.34-.274 1.802-.548l.324.457c-.555.366-1.34.64-2.125.64-1.848 0-2.818-1.189-2.818-3.2.046-1.829 1.248-3.017 2.818-3.017m-2.079 2.56h3.834c.046-1.097-.462-2.012-1.709-2.012-1.154-.045-1.986.732-2.125 2.012m-61.486 15.36h.693v-8.457h-.693zm3.511-6.172h.6l.046.915c.555-.595 1.34-1.052 2.264-1.052 1.432 0 1.94.823 1.94 2.057v4.252h-.693v-4.252c0-.914-.37-1.509-1.386-1.509-.877 0-1.57.412-2.171 1.143v4.618h-.693v-6.172h.092zm6.79 0h.693l1.94 5.395h.047l1.894-5.395h.693l-2.264 6.172h-.74zm53.31.549h-1.155v-.549h1.155v-1.92h.693v1.92h1.848v.549h-1.848v4.068c0 .732.277 1.143.97 1.143.324 0 .647-.091.924-.274l.277.457c-.323.229-.785.366-1.247.366-1.109 0-1.57-.594-1.57-1.737v-4.023h-.047zm-8.038-.549h.6l.047.915c.554-.595 1.34-1.052 2.263-1.052 1.433 0 1.94.823 1.94 2.057v4.252h-.692v-4.252c0-.914-.37-1.509-1.386-1.509-.878 0-1.571.412-2.172 1.143v4.618h-.693v-6.172h.093zm-4.989-.137c1.71 0 2.448 1.143 2.448 2.697 0 .137 0 .32-.046.457h-4.666v.046c0 1.737.74 2.743 2.264 2.743.693 0 1.386-.275 1.894-.595l.324.458c-.555.411-1.386.685-2.218.685-1.894 0-2.91-1.234-2.91-3.29.046-1.967 1.247-3.2 2.91-3.2zm-2.171 2.652h4.019c.046-1.143-.462-2.104-1.802-2.104-1.155-.045-2.032.778-2.217 2.104zm-11.873-2.515h.6l.047.869c.555-.549 1.294-1.006 2.172-1.006.923 0 1.477.411 1.708 1.052.601-.595 1.386-1.052 2.31-1.052 1.34 0 1.848.823 1.848 2.057v4.252h-.693v-4.252c0-.914-.323-1.509-1.293-1.509-.786 0-1.479.412-2.033 1.006.047.183.047.32.047.503v4.206h-.693v-4.252c0-.914-.324-1.508-1.294-1.508-.831 0-1.524.412-2.079 1.051v4.709h-.693v-6.126h.046zm-4.758.549h-1.154v-.549h1.154v-1.92h.693v1.92h1.848v.549h-1.848v4.068c0 .732.277 1.143.97 1.143.323 0 .647-.091.924-.274l.278.457c-.324.229-.786.366-1.248.366-1.109 0-1.57-.594-1.57-1.737v-4.023h-.047zm-6.929 4.662c.416.275 1.155.549 1.94.549 1.017 0 1.57-.457 1.57-1.143 0-1.828-3.74-.686-3.74-3.063 0-1.005.877-1.737 2.124-1.737.74 0 1.432.183 2.033.457l-.231.55a4.306 4.306 0 0 0-1.756-.413c-.924 0-1.478.458-1.478 1.143 0 1.829 3.741.64 3.741 3.063 0 1.052-.784 1.737-2.263 1.737-.924 0-1.755-.274-2.264-.594l.324-.549zm-4.712-5.348c1.71 0 2.448 1.143 2.448 2.697 0 .137 0 .32-.046.457h-4.665v.046c0 1.737.739 2.743 2.263 2.743.693 0 1.386-.275 1.894-.595l.323.458c-.554.411-1.386.685-2.217.685-1.894 0-2.91-1.234-2.91-3.29 0-1.967 1.2-3.2 2.91-3.2zm-2.217 2.652h4.019c.046-1.143-.462-2.104-1.802-2.104-1.155-.045-2.032.778-2.217 2.104zm29.888-15.589h1v-.686h-1v.686zm0 7.406h1v-5.897h-1v5.897z"
    /></g></svg>
