<svg xmlns="http://www.w3.org/2000/svg" width="67" height="63" viewBox="0 0 67 63">
    <g fill="none" fill-rule="evenodd">
        <path fill="#D1EC98" d="M35.043 27.44c0 8.284-6.716 15-15 15-8.284 0-15-6.716-15-15 0-8.284 6.716-15 15-15 8.284 0 15 6.716 15 15"/>
        <path stroke="#857D76" stroke-linejoin="round" stroke-width="2" d="M7.704 53.648l10.173-17.62 4.226 2.44-1.786-6.666-2.281-8.513-7.348 1.97-7.831 2.097 4.965 2.866L1 42.037l8.07 14.216h15.5v-14h-10M27.919 1.119l10.173 17.62-4.226 2.44 6.665 1.786 8.514 2.28 1.968-7.347 2.099-7.83-4.965 2.866-6.821-11.815-16.347-.12-7.75 13.424 12.125 7 5-8.66M63.513 44.537H43.167v-4.88l-4.88 4.88-6.232 6.232 5.38 5.379 5.732 5.732v-5.732h13.642l8.277-14.097-7.75-13.423-12.125 7 5 8.66"/>
    </g>
</svg>
