<svg xmlns="http://www.w3.org/2000/svg" width="65" height="64" viewBox="0 0 65 64">
    <g fill="none" fill-rule="evenodd">
        <path fill="#D1EC98" d="M65 29c0 8.284-6.716 15-15 15-8.284 0-15-6.716-15-15 0-8.284 6.716-15 15-15 8.284 0 15 6.716 15 15"/>
        <path stroke="#857D76" stroke-linejoin="round" stroke-width="2" d="M47 63h17M0 63h45M12 51V23l-2-2V9"/>
        <path stroke="#857D76" stroke-linejoin="round" stroke-width="2" d="M24 56a7 7 0 1 1-14 0 7 7 0 0 1 14 0zM13 9H8V6c0-1.656 1.344-3 3-3h14l2-2h8l2 2h13a6 6 0 0 1 6 6H15M16 56h2M40 34a9 9 0 0 1-9 9 9 9 0 0 1-9-9 9 9 0 0 1 9-9c3.533 0 6.527 2.037 8 5"/>
        <path stroke="#857D76" stroke-linejoin="round" stroke-width="2" d="M33 30h6v-6M32 13h-2M28 13h-2M36 13h-2M47 63a3 3 0 0 0 3-3V23l2-2V9M10 13h14M38 13h14"/>
    </g>
</svg>
