<svg xmlns="http://www.w3.org/2000/svg" width="58" height="64" viewBox="0 0 58 64">
    <g fill="none" fill-rule="evenodd">
        <path fill="#85E9E9" d="M35.82 48.593c0 8.284-6.716 15-15 15-8.284 0-15-6.716-15-15 0-8.284 6.716-15 15-15 8.284 0 15 6.716 15 15"/>
        <path stroke="#857D76" stroke-width="2" d="M19.546 53.128a14.173 14.173 0 0 1-4.36.682M15.187 53.81C7.352 53.81 1 47.46 1 39.625c0-9.29 10.672-19.836 14.187-28.248 1.742 4.169 5.24 8.86 8.328 13.665"/>
        <path stroke="#857D76" stroke-width="2" d="M36.581 62.593c-11.078 0-20.059-8.98-20.059-20.059 0-13.136 15.09-28.047 20.06-39.94 4.97 11.893 20.058 26.804 20.058 39.94 0 11.078-8.98 20.06-20.059 20.06"/>
        <path stroke="#857D76" stroke-linecap="round" stroke-width="2" d="M49.007 42.534c0 6.863-5.563 12.426-12.426 12.426"/>
    </g>
</svg>
