<svg xmlns="http://www.w3.org/2000/svg" xmlns:xlink="http://www.w3.org/1999/xlink" width="50" height="60" viewBox="0 0 50 60">
    <defs>
        <path id="a" d="M0 60h50V0H0z"/>
    </defs>
    <g fill="none" fill-rule="evenodd">
        <path fill="#85E9E9" d="M50 40c0 8.284-6.716 15-15 15-8.284 0-15-6.716-15-15 0-8.284 6.716-15 15-15 8.284 0 15 6.716 15 15"/>
        <path stroke="#857D76" stroke-width="2" d="M8 34h11V14H7M19 18h16c6.627 0 12 5.373 12 12v10H34v-7a4 4 0 0 0-4-4H20"/>
        <mask id="b" fill="#fff">
            <use xlink:href="#a"/>
        </mask>
        <path stroke="#857D76" stroke-width="2" d="M24 18h6V5h-6zM20 5h14a2 2 0 0 0 0-4H20a2 2 0 0 0 0 4zM47 53a6 6 0 1 1-12 0c0-3.314 6-10 6-10s6 6.686 6 10zM6 34H4M2 34H0" mask="url(#b)"/>
    </g>
</svg>
